<svg xmlns="http://www.w3.org/2000/svg" xmlns:xlink="http://www.w3.org/1999/xlink" viewBox="0 0 174.35 70"><defs><style>.cls-1{fill:#1459a9;}.cls-2{fill:url(#linear-gradient);}</style><linearGradient id="linear-gradient" x1="12.88" y1="-1.05" x2="21.64" y2="22.85" gradientUnits="userSpaceOnUse"><stop offset="0" stop-color="#ed2024"/><stop offset="1" stop-color="#d42829"/></linearGradient></defs><g id="Layer_2" data-name="Layer 2"><g id="Layer_1-2" data-name="Layer 1"><path class="cls-1" d="M51.26,34.32a.74.74,0,0,0-.3.17.84.84,0,0,0-.18.28,1,1,0,0,0-.06.33.94.94,0,0,0,0,.34,1.11,1.11,0,0,0,.15.31,1,1,0,0,0,.23.26.71.71,0,0,0,.29.14.6.6,0,0,0,.35,0,.61.61,0,0,0,.29-.17.8.8,0,0,0,.18-.27,1.28,1.28,0,0,0,.07-.34,1.27,1.27,0,0,0,0-.34,1.23,1.23,0,0,0-.14-.31,1.1,1.1,0,0,0-.23-.25.85.85,0,0,0-.3-.15A.79.79,0,0,0,51.26,34.32Z"/><path class="cls-1" d="M26.42,65.43a.58.58,0,0,0,.17-.05.24.24,0,0,0,.1-.1.28.28,0,0,0,0-.13.29.29,0,0,0,0-.13.28.28,0,0,0-.08-.11l-.16-.09-.26,0-.77-.07-.06.65.76.08Z"/><path class="cls-1" d="M52.07,37.67a.7.7,0,0,0-.32.13.72.72,0,0,0-.21.25.82.82,0,0,0-.12.32,1.29,1.29,0,0,0,0,.34,1.39,1.39,0,0,0,.1.33,1.07,1.07,0,0,0,.19.28,1,1,0,0,0,.27.19.76.76,0,0,0,.34,0,.7.7,0,0,0,.32-.13.88.88,0,0,0,.22-.25,1,1,0,0,0,.11-.32,1,1,0,0,0,0-.34,1,1,0,0,0-.09-.33,1.38,1.38,0,0,0-.19-.28.92.92,0,0,0-.28-.19A.74.74,0,0,0,52.07,37.67Z"/><polygon class="cls-1" points="48.5 55.23 47.61 55.07 48.05 55.88 48.5 55.23"/><path class="cls-1" d="M44.34,60.6,45,60a.65.65,0,0,0,.24-.33.25.25,0,0,0-.06-.25.26.26,0,0,0-.24-.09.73.73,0,0,0-.36.2l-.63.56Z"/><polygon class="cls-1" points="33.47 64.55 33.25 65.44 34.02 65.27 33.47 64.55"/><path class="cls-1" d="M14.39,29.38A18.62,18.62,0,0,0,24.43,60a2.26,2.26,0,0,1,0-.45,18.18,18.18,0,0,1-9.76-29.82C14.58,29.61,14.48,29.5,14.39,29.38Z"/><path class="cls-1" d="M25.1,22.87c-3.38.14-12.16,2.95-6.25,6.64a.23.23,0,0,0,.35-.09c1.7-2.39,5.5-3.76,8.21-2.57a.62.62,0,0,0,.71-.61C28.36,22.93,28.06,22.68,25.1,22.87Zm-5.05,4.59,0-.05,0,0s0,0,0,0,0,0-.08,0l-.28-.11L19,27.8l.08.27a.29.29,0,0,0,.06.1s0,0,.07,0l0,0-.36.36-.05-.05a.08.08,0,0,0,0-.08.36.36,0,0,0,0-.1l-.48-1.46,0-.09a.16.16,0,0,0,0-.06s0,0,0,0l-.06,0,0,0,.43-.42.05.05,0,0a.07.07,0,0,0,0,.06l.05,0,.08,0,1.53.53a.11.11,0,0,0,.08,0l.07,0,.05,0Zm2.29-1.32,0-.06c.06,0,.08-.07.06-.1l-.5-1.07h0l-.1,1.49h0l-1.18-.89h0l.49,1.07s.06.05.12,0l0,.06-.49.22,0-.06s0,0,0,0,0,0,0-.05l-.68-1.48s0,0,0,0H20l0-.06.6-.27,0,.06,0,0a0,0,0,0,0,0,0s0,0,0,0l.05,0,.85.63.08-1.05v-.12s0,0-.06,0l0-.06.6-.27,0,.05a.1.1,0,0,0-.05,0v0l.68,1.47a.1.1,0,0,0,.05,0h0l0,.06ZM25,25.66a0,0,0,0,0,0-.05H24.9l-1.68.22v-.07c.07,0,.1,0,.09-.07l-.2-1.6S23.06,24,23,24V24l.61-.08V24c-.07,0-.1,0-.09.08l.18,1.4,1.17-.15a.12.12,0,0,0,.08,0,.09.09,0,0,0,0-.07H25l.06.48Zm2.42-1.47h-.06a.06.06,0,0,0-.05,0,.13.13,0,0,0-.07,0l-.09.08-.76.73-.12.62s0,.07.07.08v.06l-.55-.11v-.06h.05s0,0,0,0L26,25l-.49-1.07a.13.13,0,0,0-.07-.08l-.08,0,0-.06.72.14v.06h-.06s0,0,0,0a.62.62,0,0,0,0,.11c0,.06.05.13.08.2a1.6,1.6,0,0,1,.1.23l.09.2.52-.48.05-.06s0,0,0,0,0,0,0,0l-.05,0V24l.61.12Zm-8.52,3.35.45-.45-.67-.26Z"/><path class="cls-1" d="M28.19,14.76h-.72c.07.28.14.56.2.85A12,12,0,0,1,28,17.56a6.28,6.28,0,0,1-.36,2.75,3.92,3.92,0,0,1-.16.36l.88,0a21,21,0,0,1,16,34.73c-1.66-.86-7.68-4.09-9.1-6.4a5.38,5.38,0,0,1-.42-.5,1.18,1.18,0,0,1-.12-.69,3.8,3.8,0,0,0,0-.46,10.49,10.49,0,0,0-.15-3.4,3.39,3.39,0,0,0-.39-1.06c-.06-.11-.14-.21-.29-.12a2.63,2.63,0,0,1-1.06.33c-.13,0-.2.07-.19.23a1,1,0,0,1-.22.69.31.31,0,0,0-.06.31,2.43,2.43,0,0,1-.25,2,.51.51,0,0,0-.09.31,4.61,4.61,0,0,1-.09,1,2.76,2.76,0,0,1-.5,1.27.42.42,0,0,1-.26.19c-.28.06-.32.1-.28.38A14.52,14.52,0,0,1,30.94,51c.06,1,.1,2.06.16,3.08,0,.23,0,.61.33.7s.58-.28,1.59.56a30.17,30.17,0,0,1,4.61,5.19,21,21,0,0,1-21.53-36,4.71,4.71,0,0,1-.83-.27,4.4,4.4,0,0,1-.9-.57,6.25,6.25,0,0,1-1-.95,1.49,1.49,0,0,1-.36.05,1.56,1.56,0,0,1-.86-.27l-1.25-.85-.14-.1a1.07,1.07,0,0,1-.25-.21,26.88,26.88,0,1,0,17.68-6.65Zm5.53,3.41-.36.27c-.08.33,0,.66,0,1a1.15,1.15,0,0,1-.52-.34.56.56,0,0,0-.68-.11,1.61,1.61,0,0,1-.61.17c.08-.34.23-.62.29-.95a9.24,9.24,0,0,0-.55-.84c.35-.07.68,0,1,0l.58-.77a5.47,5.47,0,0,1,.34.92c.28.2.64.18.92.38A1.27,1.27,0,0,1,33.72,18.17Zm5.79,2-.4.19c-.15.32-.12.66-.25,1a1.29,1.29,0,0,1-.43-.44.58.58,0,0,0-.65-.24,1.67,1.67,0,0,1-.64.05c.14-.32.35-.56.47-.87a7.86,7.86,0,0,0-.39-.94c.36,0,.67.16,1,.16l.71-.64a5.94,5.94,0,0,1,.16,1c.24.24.59.3.83.54A1.36,1.36,0,0,1,39.51,20.13Zm4.83,3.39-.44.09c-.22.27-.28.6-.48.88A1.4,1.4,0,0,1,43.1,24a.57.57,0,0,0-.56-.4,1.61,1.61,0,0,1-.63-.11c.22-.27.47-.46.67-.73a7.63,7.63,0,0,0-.13-1c.34.09.6.32.95.41l.85-.44a7.33,7.33,0,0,1-.08,1c.16.3.49.43.66.74A1.45,1.45,0,0,1,44.34,23.52Zm4.08,4.59-.45,0c-.26.22-.37.54-.62.79a1.29,1.29,0,0,1-.22-.58.59.59,0,0,0-.5-.49,1.7,1.7,0,0,1-.6-.2c.26-.24.55-.38.79-.61.07-.32,0-.65,0-1,.32.14.54.41.86.56l.92-.3a6,6,0,0,1-.25.95c.12.32.42.51.54.84A1.22,1.22,0,0,1,48.42,28.11ZM9.34,24.55a6,6,0,0,1,.93.33c.33-.09.54-.38.87-.47a1.74,1.74,0,0,1,0,.51l0,.44c.2.29.51.43.74.69a1.54,1.54,0,0,1-.59.18.57.57,0,0,0-.54.44,1.6,1.6,0,0,1-.26.59c-.2-.28-.32-.58-.54-.84a7.28,7.28,0,0,0-1-.11c.17-.32.46-.51.63-.82C9.48,25.19,9.42,24.89,9.34,24.55ZM6.43,30.21c.24-.23.29-.58.54-.82a1.19,1.19,0,0,1,.24.44c.06.14.13.27.19.4.31.16.65.12,1,.25a1.29,1.29,0,0,1-.43.44.57.57,0,0,0-.25.65,1.65,1.65,0,0,1,0,.64c-.31-.15-.56-.36-.88-.48a9.62,9.62,0,0,0-.93.38c0-.36.16-.67.17-1-.21-.22-.41-.46-.64-.72A7.25,7.25,0,0,1,6.43,30.21ZM4.2,36.39c.2-.27.21-.63.42-.9a1.14,1.14,0,0,1,.29.41,4,4,0,0,1,.25.37c.33.11.67,0,1,.12a1.3,1.3,0,0,1-.37.49.59.59,0,0,0-.16.67,1.72,1.72,0,0,1,.14.63c-.33-.11-.61-.27-.93-.35a8,8,0,0,0-.87.5c-.06-.35.06-.68,0-1l-.73-.62A4.58,4.58,0,0,1,4.2,36.39Zm-.28,9c-.09-.34-.1-.66-.21-1s-.59-.27-.89-.46c.27-.23.61-.31.88-.54,0-.3.08-.61.13-1,.33.16.49.47.75.64s.64-.16,1-.13a1.21,1.21,0,0,1-.18.47l-.18.41c.09.33.33.58.44.9A1.37,1.37,0,0,1,5,44.72a.58.58,0,0,0-.66.24A1.6,1.6,0,0,1,3.92,45.41Zm2.72,5.37a.58.58,0,0,0-.57.4,1.46,1.46,0,0,1-.3.56c-.18-.3-.28-.6-.47-.88-.29-.12-.65-.1-1-.2.2-.29.5-.46.7-.76,0-.29-.09-.61-.14-.95.36.06.6.31.9.4.33-.06.57-.32.91-.39a1.35,1.35,0,0,1,0,.5l-.06.45c.17.29.48.46.67.74A1.41,1.41,0,0,1,6.64,50.78ZM53.24,38a2,2,0,0,1,.12,1,1.34,1.34,0,0,1-.15.49,1.1,1.1,0,0,1-.33.38.9.9,0,0,1-.51.2,1,1,0,0,1-.54-.06,1.12,1.12,0,0,1-.41-.3,1.45,1.45,0,0,1-.28-.43,1.72,1.72,0,0,1-.13-.48,1.68,1.68,0,0,1,0-.5,1.35,1.35,0,0,1,.16-.49,1.07,1.07,0,0,1,.32-.38,1,1,0,0,1,.51-.2,1,1,0,0,1,.55.06,1.17,1.17,0,0,1,.4.3A1.28,1.28,0,0,1,53.24,38Zm-.79-3.52a1.57,1.57,0,0,1,.2.46,2.52,2.52,0,0,1,.07.49,1.48,1.48,0,0,1-.09.51,1,1,0,0,1-.26.42,1.06,1.06,0,0,1-.47.28,1.14,1.14,0,0,1-.55,0,1.2,1.2,0,0,1-.45-.23,1.55,1.55,0,0,1-.33-.39,1.92,1.92,0,0,1-.21-.46,1.57,1.57,0,0,1-.06-.49,1.7,1.7,0,0,1,.08-.51,1.3,1.3,0,0,1,.27-.43,1.12,1.12,0,0,1,.48-.27,1,1,0,0,1,.54,0,1.07,1.07,0,0,1,.45.23A1.25,1.25,0,0,1,52.45,34.46ZM49.62,33q0,.12.12.09l1.63-.7-.58-1.35a.2.2,0,0,0-.06-.09.09.09,0,0,0-.1,0l0-.08.56-.24,0,.08a.07.07,0,0,0-.06.07s0,.06,0,.1L52,32.87l-.07,0c0-.08-.08-.11-.13-.09l-1.85.78s-.06.07,0,.15l-.08,0-.3-.7ZM8.24,56.61l-.06,0-.4-.55.07-.05s0,0,0,0a.08.08,0,0,0,.07,0l1.43-1L9,54.44a.1.1,0,0,0-.15,0l-.05-.07L9.27,54l0,.07a.08.08,0,0,0,0,.08.19.19,0,0,0,0,.07l1.16,1.6a.1.1,0,0,0,.06.05.08.08,0,0,0,.09,0l.05.07-.51.36,0-.06a.1.1,0,0,0,0-.08.19.19,0,0,0,0-.08l-.43-.59-1.43,1S8.21,56.55,8.24,56.61ZM11,59.75l-.05.06-.47-.5.06-.06s.09.06.12,0l.61-.58-1-1-.62.57a.14.14,0,0,0,0,.06.08.08,0,0,0,0,.05l-.05.06-.47-.49.06-.06s.08,0,.12,0l1.47-1.38s0-.07,0-.11l.06-.06.46.49-.06.06s0,0-.05,0,0,0-.06,0l-.56.52,1,1,.56-.51a.09.09,0,0,0,0-.13l.05-.05.47.5-.06.05a.05.05,0,0,0-.05,0,.09.09,0,0,0-.06,0L11,59.64a.09.09,0,0,0,0,.06A.08.08,0,0,0,11,59.75Zm3.58.71-.05-.05a.09.09,0,0,0,0-.09l-.08-.1-1.12-.91-.35.43.68.55a.25.25,0,0,0,.12.07s.08,0,.12-.07l.06.05-.44.54-.06-.05s.06-.1,0-.13a.24.24,0,0,0-.09-.12L12.72,60l-.38.47,1.14.94a.17.17,0,0,0,.11,0,.09.09,0,0,0,.08,0l.06,0-.38.47-.06,0s0-.06,0-.08a.29.29,0,0,0-.08-.07l-1.6-1.32.05-.06.06,0a.05.05,0,0,0,0,0l1.28-1.56s0,0,0-.06l0,0,0-.06,1.57,1.28a.19.19,0,0,0,.12.06.09.09,0,0,0,.08,0l.06,0Zm3,1.41h-.07a.07.07,0,0,0-.06,0,.14.14,0,0,0,0,.07v.1l-.07,2a.13.13,0,0,0,0,.09l.06.08,0,.07L16.71,64l0-.07h0l.05,0a.33.33,0,0,0,0-.12v-.37l-.94-.52-.3.19-.1.1s0,.06,0,.08l0,.07L15,63l0-.06a.12.12,0,0,0,.1,0l.12-.06,1.55-1.12.1-.06a.17.17,0,0,0,.06-.06s0-.05,0-.07l0-.06,0-.07.66.37Zm4,1.7h-.07s0,0,0,0l-.73,1.89a.06.06,0,0,0,0,.06s0,0,.06,0l0,.07-.65-.25,0-.07c.07,0,.11,0,.13,0L20.77,64h0l-1.42,1.21h0L19.1,63.3h0l-.53,1.37c0,.06,0,.1.08.13l0,.07L18,64.63l0-.07h.07a.08.08,0,0,0,0,0l.73-1.9a.06.06,0,0,0,0-.06l-.06,0,0-.08.78.3,0,.07h0a0,0,0,0,0,0,0,.06.06,0,0,0,0,.06s0,.05,0,.08l.18,1.31,1-.84a.29.29,0,0,0,.08-.07l0,0a.05.05,0,0,0,0-.07l0-.07.76.29Zm2.72,1.06h-.08a.07.07,0,0,0,0-.08.33.33,0,0,0-.12-.06l-1.4-.32-.12.54.84.19a.36.36,0,0,0,.14,0s.06-.05.08-.11h.07l-.15.68-.08,0a.13.13,0,0,0,0-.14.33.33,0,0,0-.12-.06l-.85-.19-.14.59,1.44.34a.24.24,0,0,0,.12,0,.11.11,0,0,0,.06-.07l.07,0-.13.59-.08,0s0-.07,0-.08a.13.13,0,0,0-.1,0l-2-.47v-.08a.06.06,0,0,0,.06,0,.13.13,0,0,0,0-.06l.46-2s0,0,0-.06l-.05,0v-.08l2,.46a.14.14,0,0,0,.13,0,.06.06,0,0,0,.05-.06h.08Zm3,.56a.56.56,0,0,1-.21.43,1,1,0,0,1-.49.16l.51.89a.07.07,0,0,0,.07.06l.07,0v.08l-.83-.08v-.08h.07a0,0,0,0,0,0,0,.43.43,0,0,1,0,0l-.05-.09L26,65.76l-.63-.06-.08.78a.08.08,0,0,0,0,.06.16.16,0,0,0,.11,0v.08l-.77-.07V66.5c.09,0,.13,0,.14-.07l.2-2s0-.08-.12-.09v-.08l1.51.15.38.08a.92.92,0,0,1,.28.15.48.48,0,0,1,.17.23A.69.69,0,0,1,27.23,65.19Zm1.46-.62c-.08,0-.11,0-.12.08v2s0,.08.12.08v.08h-.74v-.08c.08,0,.12,0,.12-.07v-2c0-.05,0-.08-.11-.08v-.08h.74ZM32,66.29h0l-.13.06a1.53,1.53,0,0,1-.24.14,1.26,1.26,0,0,1-.33.15,1.75,1.75,0,0,1-.41.09,2.44,2.44,0,0,1-.54,0,1.48,1.48,0,0,1-.47-.18,1,1,0,0,1-.51-.84,1.12,1.12,0,0,1,.07-.53,1.27,1.27,0,0,1,.27-.41,1.39,1.39,0,0,1,.44-.26,1.87,1.87,0,0,1,.53-.13,2.8,2.8,0,0,1,.41,0l.33,0,.22.06.1,0s0,0,0,0l0,0,.07,0L31.5,65l-.05,0s0,0,0,0a.08.08,0,0,0,0,0,.19.19,0,0,0-.09-.09,1,1,0,0,0-.21-.07,1.09,1.09,0,0,0-.26,0,1,1,0,0,0-.24,0,1.06,1.06,0,0,0-.35.09A1.12,1.12,0,0,0,30,65a.64.64,0,0,0-.18.27.79.79,0,0,0,0,.35.91.91,0,0,0,.1.33.84.84,0,0,0,.23.23.77.77,0,0,0,.31.12.87.87,0,0,0,.36,0,1.87,1.87,0,0,0,.3,0,1.69,1.69,0,0,0,.27-.12.77.77,0,0,0,.2-.13.17.17,0,0,0,.08-.13s0,0,0-.05l.06,0,.34.44Zm2.54-.2V66l0,0a0,0,0,0,0,0,0,.19.19,0,0,0,0-.1l-.24-.28-1.06.23-.09.35a.36.36,0,0,0,0,.14s0,0,.09,0l0,.08-.61.14,0-.08a.11.11,0,0,0,.08-.07.5.5,0,0,0,0-.13l.42-1.86,0-.11a.38.38,0,0,0,0-.1.1.1,0,0,0,0,0H33V64l.73-.16,0,.08-.06,0a.08.08,0,0,0,0,.07l0,.07.07.08,1.3,1.56a.09.09,0,0,0,.08,0l.09,0,0,.08Zm3.22-1,0-.08s.05,0,0,0,0,0-.1-.07L35.87,64l.51,1.39c0,.05.06.06.13,0l0,.07-.61.23,0-.07a.08.08,0,0,0,0-.11l-.7-1.89a.07.07,0,0,0-.11,0l0-.08.72-.26,0,.08s0,0,0,0,0,.05.12.08l1.66.8L37.11,63c0-.05-.06-.06-.14,0l0-.08.63-.23,0,.08c-.05,0-.07.05-.05.1l.71,1.89s.05.06.1,0l0,.08Zm4.68-2.34s0-.06-.07-.05l-.11.05-1.8,1.09-.05-.07c.08,0,.1-.09.08-.13l-1-1.73s-.08,0-.16,0l0-.07.66-.4,0,.07c-.07.05-.09.09-.07.14l.91,1.51L42,62.36a.18.18,0,0,0,.07-.08.1.1,0,0,0,0-.09l.07,0,.31.52Zm.46-.45,0-.07s.07-.08,0-.13l-1.18-1.63s-.08,0-.15,0l0-.07.6-.43,0,.06c-.06,0-.08.09,0,.13l1.18,1.64s.08,0,.14,0l.05.06Zm2.87-2.57a.94.94,0,0,1-.12.28,2,2,0,0,1-.25.28l-1.21,1.08-.06-.06c.06-.06.08-.11,0-.14l-1.34-1.51s-.08,0-.14,0l-.06-.06,1-.92a3.33,3.33,0,0,1,.32-.24,1.56,1.56,0,0,1,.33-.14.51.51,0,0,1,.3,0,.39.39,0,0,1,.26.15.4.4,0,0,1,.11.33.86.86,0,0,1-.11.33h0a.92.92,0,0,1,.39-.09.59.59,0,0,1,.49.42A.61.61,0,0,1,45.73,59.69ZM47,58.57l-.06,0a.09.09,0,0,0,0-.06.11.11,0,0,0,0-.06l-.6-.52-1.46-.16-.13,0-.09.07-.06-.06.61-.69.06.06a.09.09,0,0,0,0,.06s0,0,0,.06a.33.33,0,0,0,.14,0l.26,0,.32,0,.27,0-.19-.86a.81.81,0,0,0,0-.11l0-.05s0,0-.05,0a.1.1,0,0,0-.06,0l-.06,0,.51-.59.06.05s0,0,0,.06a.14.14,0,0,0,0,.07.38.38,0,0,0,0,.1,1.31,1.31,0,0,0,0,.15l.3,1.27.6.53s.08,0,.13,0l.06.06Zm2.39-3.06-.07,0a.07.07,0,0,0,0,0s0,0,0,0a.21.21,0,0,0-.12,0l-.37-.05-.61.89.17.31a.48.48,0,0,0,.08.12s0,0,.09,0l.07,0-.37.52-.06-.05a.14.14,0,0,0,0-.11l-.06-.11-1-1.66-.06-.11a.16.16,0,0,0-.05-.06s0,0-.07,0l-.06,0-.07,0,.43-.62.07,0a.14.14,0,0,0,0,.06.06.06,0,0,0,0,.06.11.11,0,0,0,.07,0l.1,0,2,.27h.09l.08,0,.07,0Zm1.66-2.94-.07,0s0-.06,0-.07-.06,0-.12,0L49,53.05l1.32.67s.08,0,.11-.06l.08,0-.31.59-.07,0s0-.09,0-.11l-1.8-.92s-.07,0-.1,0l-.08,0,.35-.67.07,0s0,0,0,.06a.32.32,0,0,0,.15,0l1.76-.54-1.26-.64s-.09,0-.12.06l-.08,0,.31-.6.07,0c0,.05,0,.08,0,.11l1.8.91s.08,0,.11,0l.07,0Zm1.57-4.23c0,.14,0,.27-.08.38a2.45,2.45,0,0,1-.15.4,1.5,1.5,0,0,1-.15.26l-.12.15a.2.2,0,0,0-.07.1.25.25,0,0,0,0,.07l-.05,0-.45-.38,0,0h.08a.31.31,0,0,0,.13-.09.9.9,0,0,0,.15-.18,1.59,1.59,0,0,0,.13-.22,1.2,1.2,0,0,0,.09-.21c0-.05,0-.11,0-.19a1,1,0,0,0,0-.24.54.54,0,0,0,0-.22.16.16,0,0,0-.13-.12.14.14,0,0,0-.17,0,.59.59,0,0,0-.13.17c0,.08-.07.17-.1.27s-.07.21-.11.31a2.22,2.22,0,0,1-.14.31.94.94,0,0,1-.18.25.68.68,0,0,1-.25.14.58.58,0,0,1-.34,0,.6.6,0,0,1-.24-.14.58.58,0,0,1-.17-.25,1.28,1.28,0,0,1-.07-.37,1.84,1.84,0,0,1,.08-.48,2,2,0,0,1,.14-.38,2.76,2.76,0,0,1,.16-.27l.13-.18a.33.33,0,0,0,.07-.13.14.14,0,0,0,0-.09l0-.05.45.45,0,0h-.1a.34.34,0,0,0-.14.08l-.14.16-.13.21a1.17,1.17,0,0,0-.09.24.71.71,0,0,0,0,.2.69.69,0,0,0,0,.2.24.24,0,0,0,0,.15.14.14,0,0,0,.11.09.17.17,0,0,0,.17,0,.85.85,0,0,0,.14-.17c0-.08.07-.16.11-.27s.07-.2.11-.31a1.73,1.73,0,0,1,.14-.31,1.08,1.08,0,0,1,.18-.24.58.58,0,0,1,.25-.15.64.64,0,0,1,.33,0,.57.57,0,0,1,.33.22,1.13,1.13,0,0,1,.14.36A1.41,1.41,0,0,1,52.65,48.34Zm.63-2.87a1.75,1.75,0,0,1-.16.52,1.1,1.1,0,0,1-1.22.71,1.11,1.11,0,0,1-.82-.56,1.6,1.6,0,0,1-.16-.48,2,2,0,0,1,0-.54,2.24,2.24,0,0,1,.1-.41,2.33,2.33,0,0,1,.12-.3,1.9,1.9,0,0,1,.11-.21l.05-.09s0,0,0,0l0,0,.07-.06.47.43,0,0h-.06a.15.15,0,0,0-.12.07,1.42,1.42,0,0,0-.11.18,2.4,2.4,0,0,0-.11.23,1.4,1.4,0,0,0-.06.24,1.09,1.09,0,0,0,0,.36.81.81,0,0,0,.11.32.61.61,0,0,0,.21.24.83.83,0,0,0,.32.13.85.85,0,0,0,.36,0,.63.63,0,0,0,.27-.16.79.79,0,0,0,.2-.27,1.3,1.3,0,0,0,.11-.35,1.38,1.38,0,0,0,0-.29,1.36,1.36,0,0,0,0-.3,1,1,0,0,0-.08-.23c0-.06-.07-.1-.11-.1a.07.07,0,0,0-.06,0l0-.07.51-.22,0,0v0s0,.06,0,.13a2.3,2.3,0,0,1,.08.27,1.93,1.93,0,0,1,.06.36A1.41,1.41,0,0,1,53.28,45.47Zm.1-2.69s0,0,.06,0a.14.14,0,0,0,0-.06h.08v.67h-.08a.07.07,0,0,0-.08-.08l-2,0c-.05,0-.08,0-.08.09h-.08v-.67h.08a.11.11,0,0,0,0,0l.06,0h.76l0-1.43h-.76c-.05,0-.07,0-.07.09h-.08v-.68h.08a.13.13,0,0,0,0,.06l.07,0,2,0a.07.07,0,0,0,.06,0,.08.08,0,0,0,0-.06h.08v.68h-.08c0-.06,0-.1-.08-.1h-.83l0,1.42Z"/><path class="cls-1" d="M44.31,59.28a.78.78,0,0,0,.21-.25.21.21,0,0,0,0-.25.22.22,0,0,0-.24-.08,1.35,1.35,0,0,0-.29.18l-.63.57.35.4Z"/><path class="cls-1" d="M29.69,36.81a6.33,6.33,0,0,1-1.59.37,3,3,0,0,0-.42,0,17.05,17.05,0,0,0-4.15,1.15l-.85.36c.11-.24.1-.22.39-.46a7.64,7.64,0,0,1,.73-.54,12.7,12.7,0,0,1,3.56-1.47.32.32,0,0,0,.29-.39s-.19-7.54-.52-8-1.41-.44-1.41-.44a11.25,11.25,0,0,0-1.16.05,6,6,0,0,0-1.25.26,6.42,6.42,0,0,0-1.54.74,3.65,3.65,0,0,0-1.4,1.41,1.24,1.24,0,0,0-.11,1,8.44,8.44,0,0,1,.34,1.08c.18.78.43,1.54.65,2.31.15.56.3,1.12.46,1.68.25.88.5,1.75.76,2.63a.32.32,0,0,1-.18.42,11,11,0,0,0-1.44,1,2.4,2.4,0,0,0-.62,3.27.37.37,0,0,1,.06.29,1.79,1.79,0,0,0,.1,1.4,2.4,2.4,0,0,0,.56.7c.12.1.24.19.22.36a2.58,2.58,0,0,0,.09.92,2.34,2.34,0,0,0,1.11,1.62.6.6,0,0,1,.21.18c.34.45.7.88,1.07,1.31a25.91,25.91,0,0,0,2,2.15s.09.12.15.1,0-.12,0-.19c0-.38,0-.76,0-1.13,0-.08,0-.2.08-.22s.11.09.13.17c.13.43.26.86.37,1.29s.28,1,.42,1.52c.26.93.54,1.85.8,2.79.11.43.24.86.37,1.29l.45,1.56c.08.25.16.51.23.76a.23.23,0,0,0,.44,0,48.14,48.14,0,0,0,0-8.29c0-.44-.08-.87-.11-1.31a1.81,1.81,0,0,0-2.46-1.66,1.19,1.19,0,0,1-.27.07c-.06,0-.15,0-.19,0s0-.12.07-.17a2.54,2.54,0,0,1,.82-.63,3.49,3.49,0,0,1,1.42-.46,2.07,2.07,0,0,1,1.63.6.15.15,0,0,0,.27-.07,2.24,2.24,0,0,0-.13-1.38,1.09,1.09,0,0,0-.37-.53,2.5,2.5,0,0,0-1-.41,5.36,5.36,0,0,0-2.63.37,9.88,9.88,0,0,0-2,.92s-.11.09-.16,0,0-.13,0-.18a3.66,3.66,0,0,1,1-1,8.72,8.72,0,0,1,2.18-1,2.8,2.8,0,0,1,1.07-.14,3.4,3.4,0,0,1,2,.76c.15.13.24.08.29-.08A1.83,1.83,0,0,0,30.53,44a1.27,1.27,0,0,0-.67-.58A5,5,0,0,0,27,43.17c-.71.2-1.41.42-2.1.67a14.38,14.38,0,0,0-1.82.85c-.08,0-.18.14-.25.05s0-.17.1-.24a4.7,4.7,0,0,1,.82-.72,10.25,10.25,0,0,1,2.86-1.24,4.47,4.47,0,0,1,1.54-.28,4.93,4.93,0,0,1,2.28.65c.18.1.26.05.24-.17a2.71,2.71,0,0,0-.34-1.24,2.24,2.24,0,0,0-1.78-1.12,10.9,10.9,0,0,0-3.74.64,17.56,17.56,0,0,0-2.72,1.14l-.5.25s-.09.05-.13,0,0-.09,0-.13.09-.11.13-.16a6.14,6.14,0,0,1,1.1-.86,11,11,0,0,1,5.38-1.62,2.41,2.41,0,0,1,.71,0,3.8,3.8,0,0,1,2,1.11c.06.06.11.17.23.13s.09-.15.1-.24A4.48,4.48,0,0,0,31,39a2.46,2.46,0,0,0-1.25-1.67c-.07,0-.23,0-.2-.14s.18-.09.28-.09a.58.58,0,0,1,.14,0,2.28,2.28,0,0,1,1.27.85,1.65,1.65,0,0,1,.4.84,10.34,10.34,0,0,0,.25,1.35,2.14,2.14,0,0,0,1.21,1.7c1,.45,1-1,1-1.29v0a8.79,8.79,0,0,0-.53-2.44,2,2,0,0,0-1.43-1.33A4.63,4.63,0,0,0,29.69,36.81Z"/><path class="cls-1" d="M28.32,13.37c-.41,0-.81,0-1.22,0,0,0,0,.11,0,.16l0,.09c.07.24.14.48.2.72h.82a27.34,27.34,0,1,1-17.92,6.72,1.32,1.32,0,0,1,0-1.18,28.31,28.31,0,1,0,18.08-6.53Z"/><polygon class="cls-1" points="16.96 62.13 16.2 62.64 16.89 63.03 16.96 62.13"/><path class="cls-1" d="M44,51.79A18.64,18.64,0,0,0,31.11,23.33c0,.14-.05.29-.08.43h0A18.2,18.2,0,0,1,43.69,51.5C43.81,51.59,43.92,51.69,44,51.79Z"/><path class="cls-2" d="M17.53,19.14a4.16,4.16,0,0,0,.65,1.36A6,6,0,0,0,19.84,22l.87.46.31.17v0c-.06-.07-.16-.1-.22-.19a2.38,2.38,0,0,0,1,.11,4.39,4.39,0,0,0,1-.17,2.91,2.91,0,0,0,.85-.41,2.68,2.68,0,0,0,.92-1.08,1.85,1.85,0,0,0,.12-1.16,1.5,1.5,0,0,0-.84-1.06A11.74,11.74,0,0,1,22.51,18a3,3,0,0,1-1-1,1.77,1.77,0,0,1-.22-.67,2.13,2.13,0,0,1,.16-1,.1.1,0,0,0,0-.12.09.09,0,0,0-.12,0,3,3,0,0,0-.47.59,2.73,2.73,0,0,0-.3,1.64,4.53,4.53,0,0,0,.33,1.25,1,1,0,0,1,0,.74,2.31,2.31,0,0,1-.62.89,1.26,1.26,0,0,0-.4.84,1.64,1.64,0,0,0,.07.48.85.85,0,0,1-.16-.17,5.48,5.48,0,0,1-1.07-2,13,13,0,0,1-.36-3.05,16.08,16.08,0,0,1,.1-2c.08-.78.2-1.54.34-2.3.11-.57.3-1.12.46-1.68s.27-1,.43-1.49S20,7.62,20.22,7a23.12,23.12,0,0,0,.72-2.42A.85.85,0,0,1,21,4.33a0,0,0,0,1,0,0,6.21,6.21,0,0,1,.2,1.87,16.92,16.92,0,0,1-.22,2,.16.16,0,0,0,0,.12l0,0a1.94,1.94,0,0,0,.4-.62A7.38,7.38,0,0,0,22,5.86a5,5,0,0,0,.07-1.28,5.19,5.19,0,0,0-.66-2.07,6.49,6.49,0,0,0-1-1.4A11.64,11.64,0,0,0,19.14,0c.08.12.16.24.23.36a3.64,3.64,0,0,1,.4,1.74,9.69,9.69,0,0,1-.41,2.51c-.15.61-.36,1.21-.54,1.81s-.42,1.44-.62,2.16-.46,1.68-.65,2.53a20.06,20.06,0,0,0-.43,2.67,15.82,15.82,0,0,0,0,3.44,11.47,11.47,0,0,0,.39,1.92m3.86,1.61a1.24,1.24,0,0,0,.29-.4.83.83,0,0,0,0-.6,4.52,4.52,0,0,1-.21-.62,2.14,2.14,0,0,1,0-.87.7.7,0,0,1,.08-.2.06.06,0,0,1,.07,0s0,0,0,.07a.9.9,0,0,0,.11.75,1.9,1.9,0,0,0,.49.49,5.11,5.11,0,0,0,.83.45.94.94,0,0,1,.58.74.8.8,0,0,1-.11.54,1.44,1.44,0,0,1-.69.6,2.22,2.22,0,0,1-.58.13,1,1,0,0,1-.8-.27.57.57,0,0,1,0-.77m2.15-9.56A5.32,5.32,0,0,1,25,9.3a9.79,9.79,0,0,1,.82-.62s0,0,.06,0-.14.19-.19.29a2.43,2.43,0,0,0-.36,1.17,6.3,6.3,0,0,0,.13,1.62c.14.76.35,1.51.55,2.26s.34,1.26.48,1.9a11.7,11.7,0,0,1,.27,1.76,5.37,5.37,0,0,1-.28,2.25,3.94,3.94,0,0,1-1.66,1.94c-.28.17-.57.33-.86.49,0,0,0,0-.05,0s0,0,.06-.06a4.07,4.07,0,0,0,1.56-2.6,7,7,0,0,0,.06-1.21,8.88,8.88,0,0,0-.15-1.25c-.09-.48-.21-1-.34-1.44l-.69-2.4c-.08-.3-.14-.6-.23-.89a.54.54,0,0,0,0-.1,4.36,4.36,0,0,0-.18.84,6.92,6.92,0,0,0,.1,2c.05.31.11.63.17,1a.85.85,0,0,1-.16-.17,3.9,3.9,0,0,1-.51-1,7.06,7.06,0,0,1-.4-1.93,4,4,0,0,1,.37-1.83M22.23,8.36a.83.83,0,0,0,.54.62,1.49,1.49,0,0,0,.78.06h.15s0,0,0,.05l-.09.15a6.91,6.91,0,0,0-.8,2.24.06.06,0,0,0,0,0,.07.07,0,0,0,0-.06c.05-.14.09-.27.14-.4A5.23,5.23,0,0,1,24.21,9.3a11.91,11.91,0,0,1,.89-.85.34.34,0,0,0,.11-.24c0-.24,0-.48,0-.72s-.05-.14-.15-.08l-.4.23a4.35,4.35,0,0,1-.58.27c-.12,0-.15,0-.12-.11A2.48,2.48,0,0,0,24,7.19a1.07,1.07,0,0,0-.3-.8.7.7,0,0,0-.69-.2.74.74,0,0,0-.31.22,2,2,0,0,0-.45,1.95m.34-.93a.81.81,0,0,1,.7-.32.57.57,0,0,1,.51.45l.06.25c0,.1,0,.14-.11.17l-.33.07a1.7,1.7,0,0,1-.7-.1.32.32,0,0,1-.13-.52m-3.85,16a6,6,0,0,1-1.63.09,4.07,4.07,0,0,1-1.33-.29,3.78,3.78,0,0,1-.63-.41A6.06,6.06,0,0,1,14.3,22a4.28,4.28,0,0,1-.4-.61,6.37,6.37,0,0,0,.42-.69.79.79,0,0,0-.24-1.08c-.09-.06-.17-.13-.27-.21l-.35-.27c.18-.24.33-.5.48-.74L14,18.3a.81.81,0,0,0-.18-1.12L13.57,17c0-.17.07-.34.1-.51.13-.65.32-1.29.39-2,0-.43.1-.87.13-1.3a4.86,4.86,0,0,0-.13-1.42,3.52,3.52,0,0,0-.34-1,2.11,2.11,0,0,0-.84-.86s-.07,0-.07-.09a4.6,4.6,0,0,0,.5.13,6.34,6.34,0,0,1,1.68.64,3.4,3.4,0,0,1,1.23,1.09,2.92,2.92,0,0,1,.41,1A4.43,4.43,0,0,1,16.72,14a2.09,2.09,0,0,1-.07.36.27.27,0,0,1-.13.18,5.07,5.07,0,0,0-1-2.58c0,.12.06.24.08.36a6.64,6.64,0,0,1,.08,1.54,14.25,14.25,0,0,1-.37,2.34,7.13,7.13,0,0,0-.16,2.39,4.94,4.94,0,0,0,2.49,3.81,3.65,3.65,0,0,0,2.19.5,6,6,0,0,0,.74-.11.31.31,0,0,1,.19,0,.58.58,0,0,1-.16.05,1.07,1.07,0,0,0-.27.09,8.54,8.54,0,0,1-1.56.45m-4.95-3.35a.29.29,0,0,1,.11.43,5.87,5.87,0,0,1-.69,1,.22.22,0,0,1-.35,0l-1.41-.95a.19.19,0,0,1-.06-.3c.24-.38.48-.76.71-1.14.09-.15.22-.16.38-.09a7.13,7.13,0,0,0-1-.76l-.23-.14c-.2-.1-.25-.23-.11-.43.24-.35.45-.72.68-1.08a.21.21,0,0,1,.33-.08,16.47,16.47,0,0,1,1.39,1,.3.3,0,0,1,.07.46,5.79,5.79,0,0,1-.75,1.08c-.13.14-.09.21.05.29a7.21,7.21,0,0,1,.88.66"/><path class="cls-1" d="M74.16,40.58V38.85a1.62,1.62,0,0,0,1.13-.4A3.23,3.23,0,0,0,76,37.39c.19-.43.38-.9.57-1.4l4.89-12.9h1.75l5.34,13.15c.1.25.24.63.4,1.14a5.79,5.79,0,0,1,.3,1.34l.82-.06h.64v1.93H84V38.92a1.26,1.26,0,0,0,1-.29,1.08,1.08,0,0,0,.24-.78,3.52,3.52,0,0,0-.28-1.13l-.5-1.38-5.44.1-.4,1.18c-.09.21-.21.54-.37,1s-.3.78-.43,1.07a7.93,7.93,0,0,1,1-.07h.82v2Zm5.42-7h4.18l-1.15-3.14c-.22-.6-.41-1.2-.58-1.81s-.29-1.15-.37-1.62h0c-.06.28-.17.71-.3,1.28a17.07,17.07,0,0,1-.63,2Z"/><path class="cls-1" d="M100.93,40.6c-.56-1.39-1.13-2.54-1.69-3.91S98.12,34,97.55,32.58c-.13-.32-.31-.77-.51-1.34s-.43-1.24-.66-2-.43-1.53-.61-2.33c0,.94.06,1.82.07,2.65s0,1.62,0,2.37v1.13c0,.38,0,.76,0,1.14s0,.75,0,1.13v1.14c0,.45,0,.88,0,1.3a7.45,7.45,0,0,1-.09.95c.29,0,.63,0,1-.06h.87v1.93H91.88V38.92a3.24,3.24,0,0,0,1-.15,1,1,0,0,0,.6-.57,3.75,3.75,0,0,0,.21-1.46l.15-9.6c0-.45,0-.89,0-1.31s0-.73,0-.95l-1,0c-.4,0-.69,0-.88,0V23h5.54l3.79,9.7c.15.38.32.83.5,1.34s.36,1,.53,1.48.29.86.37,1.14h0c.22-.58.42-1.15.6-1.7s.38-1.09.58-1.61l1.94-5.19q1-2.58,1.94-5.16h5.8v1.65a4.49,4.49,0,0,0-1,.15,1,1,0,0,0-.64.57,3.38,3.38,0,0,0-.19,1.46l.38,9.61a9.4,9.4,0,0,1,0,1.3c0,.42-.07.74-.1.95.28,0,.63,0,1-.06H114v1.93h-7V38.92a3.44,3.44,0,0,0,1-.15,1,1,0,0,0,.63-.57,3.24,3.24,0,0,0,.16-1.46l-.2-5.31c0-.2,0-.55,0-1s-.06-1-.09-1.63,0-1.15-.06-1.67l-.15.34a2,2,0,0,0-.12.34L103.27,40.6Z"/><path class="cls-1" d="M115.15,40.58V38.92a3.24,3.24,0,0,0,1-.15,1,1,0,0,0,.6-.57,3.75,3.75,0,0,0,.21-1.46v-9.6c0-.45,0-.89,0-1.31s0-.73.06-.95l-1,0c-.4,0-.69,0-.88,0V23h7.2v1.65a4,4,0,0,0-.95.15,1,1,0,0,0-.62.57,3.65,3.65,0,0,0-.21,1.46v9.61c0,.45,0,.87,0,1.27a8.09,8.09,0,0,1-.07.93h3.36a2.9,2.9,0,0,0,2.32-1,4.75,4.75,0,0,0,.84-3.07h1.68l-.15,6Z"/><path class="cls-1" d="M131.52,40.58V38.92a3.22,3.22,0,0,0,1-.15,1,1,0,0,0,.6-.57,3.71,3.71,0,0,0,.22-1.46V34.56l-4.62-7.3A10.75,10.75,0,0,1,128,26a3.08,3.08,0,0,1-.3-1.11l-.68,0-.55,0V23h7.4v1.65a2.77,2.77,0,0,0-1.21.15.91.91,0,0,0-.57.64,1.65,1.65,0,0,0,.3,1.14l1.9,3.14c.09.13.21.34.38.64s.34.6.51.92a5.15,5.15,0,0,1,.39.87h0q.12-.3.42-.9c.2-.41.46-.92.76-1.56l1.3-2.56c.08-.18.2-.42.35-.71s.31-.59.49-.88a6.51,6.51,0,0,1,.49-.71l-1,.05c-.42,0-.72,0-.9.05V23h5.54v1.65a2.59,2.59,0,0,0-1.5.72,7.63,7.63,0,0,0-1.36,2c-.53,1-1.08,2.09-1.63,3.14l-1.63,3.13v2.84c0,.45,0,.88,0,1.3s0,.74-.08.95c.29,0,.65,0,1.09-.06h.92v1.93Z"/><path class="cls-1" d="M84.54,51.54a6.5,6.5,0,0,0-.8-2.35,3.82,3.82,0,0,0-1.47-1.41,4.05,4.05,0,0,0-2.07-.45,3.11,3.11,0,0,0-1.89.6,1.85,1.85,0,0,0-.81,1.55,2.15,2.15,0,0,0,.44,1.36,4.38,4.38,0,0,0,1.34,1.08A23.13,23.13,0,0,0,81.56,53c.63.25,1.29.55,2,.88a10.52,10.52,0,0,1,1.86,1.19,5.71,5.71,0,0,1,1.38,1.61,4.22,4.22,0,0,1,.53,2.14,4.43,4.43,0,0,1-.81,2.63,5.25,5.25,0,0,1-2.24,1.8,8.46,8.46,0,0,1-5.54.32,9,9,0,0,1-2.2-.91l.08,1.05H74.64V57.83h1.65A5.14,5.14,0,0,0,77.91,61a4.53,4.53,0,0,0,3,1.06,3.57,3.57,0,0,0,1.58-.33,2.57,2.57,0,0,0,1-.86,2,2,0,0,0,.38-1.17,1.9,1.9,0,0,0-.61-1.45,5.3,5.3,0,0,0-1.53-1c-.61-.27-1.24-.53-1.87-.78-.8-.33-1.55-.69-2.25-1.06a8.89,8.89,0,0,1-1.81-1.29,4.94,4.94,0,0,1-1.63-3.84,4.81,4.81,0,0,1,.3-1.62,4.32,4.32,0,0,1,1-1.55A4.93,4.93,0,0,1,77.32,46a7.53,7.53,0,0,1,2.78-.45,9.11,9.11,0,0,1,2.2.3,6,6,0,0,1,2,.91l-.1-1h2v5.84Z"/><path class="cls-1" d="M101.63,51.54a5.4,5.4,0,0,0-1.39-3.13,3.86,3.86,0,0,0-2.82-1.08,4.26,4.26,0,0,0-2.28.6,5.15,5.15,0,0,0-1.62,1.6,7.72,7.72,0,0,0-1,2.29,11.86,11.86,0,0,0,.3,6.45,5.92,5.92,0,0,0,1.79,2.62,4.39,4.39,0,0,0,2.86,1,6.71,6.71,0,0,0,3.13-.82,7.39,7.39,0,0,0,2.61-2.27l1.21,1.1a9.87,9.87,0,0,1-2.59,2.55,8.4,8.4,0,0,1-2.64,1.16,9.9,9.9,0,0,1-2.32.31,8.66,8.66,0,0,1-3.51-.69,8.21,8.21,0,0,1-2.72-1.91,8.5,8.5,0,0,1-1.76-2.83,9.79,9.79,0,0,1-.61-3.5,10.74,10.74,0,0,1,.55-3.39,9.83,9.83,0,0,1,1.64-3,7.9,7.9,0,0,1,2.75-2.18,8.47,8.47,0,0,1,3.83-.82,8.3,8.3,0,0,1,2.15.32,8.45,8.45,0,0,1,2.19.91l-.1-1h1.93v5.84Z"/><path class="cls-1" d="M105,63.47V61.82a4,4,0,0,0,1-.15,1,1,0,0,0,.6-.58,3.66,3.66,0,0,0,.21-1.45V50c0-.45,0-.88,0-1.3s0-.73.07-.95l-1,0c-.4,0-.69,0-.88,0V45.7h7.2v1.88a3.26,3.26,0,0,0-1,.15,1,1,0,0,0-.62.56,3.7,3.7,0,0,0-.21,1.47v3.91h6.9V50c0-.45,0-.88,0-1.3a8.06,8.06,0,0,1,.08-.95l-1,0c-.4,0-.69,0-.87,0V45.7h7.19v1.88a3.26,3.26,0,0,0-1,.15,1,1,0,0,0-.62.56,3.7,3.7,0,0,0-.21,1.47v9.6c0,.45,0,.89,0,1.31s0,.73-.08.95q.41,0,1-.06l.86,0v1.93H115.5V61.82a4,4,0,0,0,1-.15,1,1,0,0,0,.6-.58,3.62,3.62,0,0,0,.22-1.45V55.58l-6.9.07v3.71c0,.45,0,.89,0,1.31s0,.73-.08.95q.41,0,1-.06l.86,0v1.93Z"/><path class="cls-1" d="M132.4,63.88a9.2,9.2,0,0,1-4.05-.81,7.3,7.3,0,0,1-2.7-2.14,8.86,8.86,0,0,1-1.5-3,11.49,11.49,0,0,1-.48-3.26,10.09,10.09,0,0,1,.54-3.2,9.39,9.39,0,0,1,1.63-3,8.2,8.2,0,0,1,2.74-2.18,8.64,8.64,0,0,1,3.89-.83,8.77,8.77,0,0,1,3.94.83,7.8,7.8,0,0,1,2.71,2.19,9.62,9.62,0,0,1,1.56,3,10.54,10.54,0,0,1,.52,3.19A10,10,0,0,1,139,60.83,8.32,8.32,0,0,1,136.28,63,8.47,8.47,0,0,1,132.4,63.88Zm.27-1.83a3.63,3.63,0,0,0,2.18-.64,4.68,4.68,0,0,0,1.41-1.67,8.16,8.16,0,0,0,.75-2.25,13,13,0,0,0,.22-2.36,15.35,15.35,0,0,0-.3-3.16A8,8,0,0,0,136,49.5a4.49,4.49,0,0,0-1.6-1.61,4.36,4.36,0,0,0-2.27-.54A3.61,3.61,0,0,0,130,48a4.84,4.84,0,0,0-1.41,1.71,8.3,8.3,0,0,0-.75,2.27,13.1,13.1,0,0,0-.22,2.38,12.67,12.67,0,0,0,.26,2.51,9.69,9.69,0,0,0,.84,2.5,5.13,5.13,0,0,0,1.55,1.91A4,4,0,0,0,132.67,62.05Z"/><path class="cls-1" d="M151.06,63.88a9.2,9.2,0,0,1-4.05-.81,7.3,7.3,0,0,1-2.7-2.14,8.68,8.68,0,0,1-1.5-3,11.49,11.49,0,0,1-.48-3.26,10.09,10.09,0,0,1,.54-3.2,9.39,9.39,0,0,1,1.63-3,8.2,8.2,0,0,1,2.74-2.18,8.64,8.64,0,0,1,3.89-.83,8.77,8.77,0,0,1,3.94.83,7.68,7.68,0,0,1,2.7,2.19,9.44,9.44,0,0,1,1.57,3,10.54,10.54,0,0,1,.52,3.19,10,10,0,0,1-2.17,6.13A8.32,8.32,0,0,1,154.94,63,8.47,8.47,0,0,1,151.06,63.88Zm.27-1.83a3.63,3.63,0,0,0,2.18-.64,4.68,4.68,0,0,0,1.41-1.67,8.16,8.16,0,0,0,.75-2.25,13,13,0,0,0,.22-2.36,15.35,15.35,0,0,0-.3-3.16,8,8,0,0,0-.92-2.47,4.49,4.49,0,0,0-1.6-1.61,4.36,4.36,0,0,0-2.27-.54,3.61,3.61,0,0,0-2.15.69,4.84,4.84,0,0,0-1.41,1.71,8.3,8.3,0,0,0-.75,2.27,13.1,13.1,0,0,0-.22,2.38,12.67,12.67,0,0,0,.26,2.51,9.69,9.69,0,0,0,.84,2.5,5.13,5.13,0,0,0,1.55,1.91A4,4,0,0,0,151.33,62.05Z"/><path class="cls-1" d="M160.83,63.47V61.82a4,4,0,0,0,1-.15,1,1,0,0,0,.6-.58,3.66,3.66,0,0,0,.21-1.45V50c0-.45,0-.88,0-1.3s0-.73.06-.95l-1,0c-.4,0-.69,0-.88,0V45.7H168v1.88a3.21,3.21,0,0,0-.95.15,1,1,0,0,0-.62.56,3.7,3.7,0,0,0-.21,1.47v9.6c0,.45,0,.88,0,1.28a8.5,8.5,0,0,1-.07.93h3.36a2.91,2.91,0,0,0,2.32-1,4.75,4.75,0,0,0,.84-3.07h1.68l-.15,6Z"/></g></g></svg>